<?xml version="1.0" encoding="UTF-8"?>
<svg xmlns="http://www.w3.org/2000/svg" viewBox="0 0 1749.6 734.4">
  <defs>
    <style>
      .cls-1 {
        stroke-width: 6.07px;
      }

      .cls-1, .cls-2, .cls-3, .cls-4, .cls-5, .cls-6, .cls-7 {
        stroke: #c9d1d9;
      }

      .cls-1, .cls-2, .cls-4, .cls-5, .cls-8, .cls-6, .cls-7 {
        stroke-miterlimit: 10;
      }

      .cls-1, .cls-3, .cls-4, .cls-5, .cls-8, .cls-9, .cls-6, .cls-7 {
        fill: none;
      }

      .cls-10, .cls-2, .cls-11 {
        fill: #c9d1d9;
      }

      .cls-2, .cls-3, .cls-4, .cls-5, .cls-8 {
        stroke-width: 4px;
      }

      .cls-3, .cls-4 {
        stroke-dasharray: 0 0 0 0 0 0 8.5 14.17 8.5 14.17 8.5 14.17;
      }

      .cls-3, .cls-4, .cls-5, .cls-9 {
        stroke-linecap: round;
      }

      .cls-3, .cls-9 {
        stroke-linejoin: round;
      }

      .cls-5 {
        stroke-dasharray: 0 0 0 0 0 0 8.5 14.17 8.5 14.17 8.5 14.17;
      }

      .cls-8 {
        stroke: #d85648;
      }

      .cls-9 {
        stroke: #4472c4;
        stroke-width: 8px;
      }

      .cls-11 {
        font-family: Roboto-Regular, Roboto;
        font-size: 48px;
      }

      .cls-6 {
        stroke-width: 5.67px;
      }

      .cls-7 {
        stroke-width: 5.67px;
      }
    </style>
  </defs>
  <g id="Scale">
    <g>
      <line class="cls-6" x1="21.6" y1="374.4" x2="1699.38" y2="374.4"/>
      <polygon class="cls-10" points="1688.14 390.87 1749.6 374.41 1688.14 357.93 1688.14 390.87"/>
    </g>
    <g>
      <line class="cls-6" x1="381.6" y1="734.4" x2="381.6" y2="64.62"/>
      <polygon class="cls-10" points="398.07 75.86 381.61 14.4 365.13 75.86 398.07 75.86"/>
    </g>
    <line class="cls-1" x1="669.6" y1="360" x2="669.6" y2="388.8"/>
    <line class="cls-1" x1="957.6" y1="360" x2="957.6" y2="388.8"/>
    <line class="cls-1" x1="1245.6" y1="360" x2="1245.6" y2="388.8"/>
    <line class="cls-1" x1="1533.6" y1="360" x2="1533.6" y2="388.8"/>
    <line class="cls-1" x1="93.6" y1="360" x2="93.6" y2="388.8"/>
    <line class="cls-7" x1="367.2" y1="158.4" x2="396" y2="158.4"/>
    <line class="cls-7" x1="367.2" y1="590.4" x2="396" y2="590.4"/>
    <circle class="cls-8" cx="381.6" cy="374.4" r="216"/>
  </g>
  <g id="Sine">
    <path class="cls-9" d="m381.6,374.41l.47-.6.44-.6.88-.6.44-.6.44-.6.44-.6.44-.6.88-.6.44-.6.44-.6.44-.6.44-.6.44-.6.88-.6.44-.6.44-.6.44-.6.44-.6.88-.6.44-.6.44-.6.44-.6.44-.6.44-.6.88-.6.44-.6.44-.6.44-.6.44-.6.88-1.21.44-.6.44-.6.44-.6.44-.6.44-.6.88-.6.44-.6.44-.6.44-.6.44-.6.88-.6.44-.6.44-.6.44-.6.44-.6.44-.6.88-.6.44-.6.44-.6.44-.6.44-.6.88-.6.44-.6.44-.6.44-.6.44-.6.44-.6.88-.6.44-.6.44-.6.44-.6.44-.6.88-.6.44-.6.44-.6.44-.6.44-.6.44-.6.88-.6.44-.6.44-.6.44-.6.44-.6.88-.6.44-.6.44-.6.44-.6.44-.6.88-.6.44-.6.44-.6.44-.6.44-.6.44-.6.88-.6.44-.6.44-.6.44-.6.44-.6.88-.6.44-.6.44-.6.44-.6.44-.6.44-.6.88-.6.44-.6h.44l.44-.6.44-.6.88-.6.44-.6.44-.6.44-.6.44-.6.44-.6.88-.6.44-.6.44-.6.44-.6.44-.6.88-.6.44-.6.44-.6.44-.6.44-.6.44-.6.88-.6.44-.6.44-.6.44-.6.44-.6.88-.6.44-.6.44-.6.44-.6.44-.6h.44l.88-.6.44-.6.44-.6.44-.6.44-.6.88-.6.44-.6.44-.61.44-.6.44-.6.88-.6.44-.6.44-.6.44-.6.44-.6.44-.6h.88l.44-.6.44-.6.44-.6.44-.6.88-.6.44-.6.44-.6.44-.6.44-.6.44-.6.88-.6.44-.6.44-.6h.44l.44-.6.88-.6.44-.6.44-.6.44-.6.44-.6.44-.6.88-.6.44-.6.44-.6h.44l.44-.6.88-.6.44-.6.44-.6.44-.6.44-.6.44-.6.89-.6h.44l.44-.6.44-.6.44-.6.88-.6.44-.6.44-.6.44-.6.44-.6h.44l.88-.6.44-.6.44-.6.44-.6.44-.6.88-.6h.44l.44-.6.44-.6.44-.6.44-.6.88-.6.44-.6.44-.6h.44l.44-.6.88-.6.44-.6.44-.6.44-.6h.44l.88-.6.44-.6.44-.6.44-.6.44-.6h.44l.88-.6.44-.6.44-.6.44-.6.44-.61h.88l.44-.6.44-.6.44-.6.44-.6.44-.6h.88l.44-.6.44-.6.44-.6.44-.6h.88l.44-.6.44-.6.44-.6.44-.6h.44l.88-.6.44-.6.44-.6.44-.6h.44l.88-.6.44-.6.44-.6h.44l.44-.6.44-.6.88-.6.44-.6h.44l.44-.6.44-.6.88-.6h.44l.44-.6.44-.6.44-.61h.44l.88-.6.44-.6.44-.6h.44l.44-.6.88-.6.44-.6h.44l.44-.6.44-.6.88-.6h.44l.44-.6.44-.6.44-.6h.44l.88-.6.44-.6h.44l.44-.6.44-.6.88-.6h.44l.44-.6.44-.6h.44l.44-.6.88-.6h.44l.44-.6.44-.6h.44l.88-.6.44-.6.44-.6h.44l.44-.6.44-.6h.88l.44-.6.44-.6h.44l.44-.6.88-.61h.44l.44-.6.44-.6h.44l.44-.6.88-.6h.44l.44-.6h.44l.44-.6.88-.6h.44l.44-.6.44-.6h.44l.44-.6.88-.6h.44l.44-.6h.44l.44-.6.88-.6h.44l.44-.6h.44l.44-.6.44-.6h.88l.44-.6h.44l.44-.6.44-.6h.88l.44-.6h.44l.44-.6.44-.6h.88l.44-.6h.44l.44-.6h.44l.44-.6.88-.6h.44l.44-.6h.44l.44-.61h.88l.44-.6h.44l.44-.6h.44l.44-.6.88-.6h.44l.44-.6h.44l.44-.6h.88l.44-.6h.44l.44-.6h.44l.44-.6h.88l.44-.6h.44l.44-.6h.44l.88-.6h.44l.44-.6h.44l.44-.6h.44l.88-.6h.44l.44-.6h.44l.44-.6h1.33l.44-.6h.44l.44-.6h.44l.88-.6h.44l.44-.6h.88l.88-.6h.44l.44-.6h.44l.44-.6h.88l.44-.6h.88l.44-.6h.44l.88-.6h.88l.44-.6h.44l.88-.6h.88l.44-.6h.44l.44-.6h1.33l.44-.61h.88l.88-.6h.88l.44-.6h.44l.44-.6h1.33l.44-.6h.88l.88-.6h.89l.44-.6h.88l.88-.6h1.33l.44-.6h1.33l.44-.6h.88l.44-.6h1.77l.44-.6h1.33l.44-.6h1.33l.44-.6h1.77l.44-.6h1.77l.44-.6h2.21l.44-.6h1.33l.88-.6h1.77l.88-.6h1.77l.44-.6h2.65l.88-.6h2.21l.88-.6h3.53l.44-.6h3.53l.88-.6h5.74l.44-.6h11.04l.44-.02h.88l.44.02h11.48l.88.6h4.86l.88.6h3.98l.44.6h3.09l.88.6h3.09l.44.6h2.21l.44.6h1.77l.88.6h1.77l.88.6h1.77l.44.6h1.77l.44.6h1.77l.44.6h1.33l.88.6h1.33l.44.6h1.77l.44.6h.88l.88.6h1.33l.44.6h1.33l.44.6h.88l.88.6h.88l.44.6h.88l.88.6h.88l.44.6h1.33l.44.6h.88l.44.6h1.33l.44.6h.44l.44.61h1.33l.44.6h.88l.44.6h.44l.88.6h.89l.44.6h.44l.88.6h.88l.44.6h.44l.44.6h.88l.44.6h.88l.44.6h.88l.44.6h.44l.44.6h.44l.44.6h1.33l.44.6h.44l.44.6h.88l.44.6h.44l.44.6h.44l.44.6h.88l.44.6h.44l.44.6h.44l.88.6h.44l.44.6h.44l.44.6h.88l.44.6h.44l.44.6h.44l.44.6h.88l.44.6h.44l.44.6h.44l.88.6h.44l.44.6h.44l.44.6h.44l.88.6.44.61h.44l.44.6h.44l.88.6h.44l.44.6h.44l.44.6.44.6h.88l.44.6h.44l.44.6.44.6h.88l.44.6h.44l.44.6h.44l.44.6.88.6h.44l.44.6h.44l.44.6.88.6h.44l.44.6.44.6h.44l.44.6h.88l.44.6.44.6h.44l.44.6.88.6h.44l.44.6.44.6h.44l.88.6h.44l.44.6.44.6h.44l.44.6.88.61h.44l.44.6.44.6h.44l.88.6.44.6h.44l.44.6.44.6h.44l.88.6.44.6.44.6h.44l.44.6.88.6h.44l.44.6.44.6h.44l.44.6.88.6.44.6h.44l.44.6.44.6h.88l.44.6.44.6.44.6h.44l.44.6.88.6.44.6h.44l.44.6.44.6h.88l.44.6.44.6.44.6h.44l.44.6.88.6.44.61h.44l.44.6.44.6.88.6.44.6h.44l.44.6.44.6.44.6h.88l.44.6.44.6.44.6h.44l.88.6.44.6.44.6.44.6h.44l.88.6.44.6.44.6.44.6h.44l.44.6.88.6.44.6.44.6h.44l.44.6.88.6.44.6.44.6.44.6h.44l.44.6.88.6.44.61.44.6h.44l.44.6.88.6.44.6.44.6.44.6h.44l.44.6.88.6.44.6.44.6.44.6.44.6h.88l.44.6.44.6.44.6.44.6.44.6h.88l.44.6.44.6.44.6.44.6.88.6.44.6.44.6h.44l.44.6.44.6.88.6.44.6.44.6.44.6.44.6h.88l.44.6.44.6.44.6.44.6.88.6.44.6.44.6.44.6h.44l.44.6.88.6.44.6.44.6.44.6.44.6.88.6.44.6.44.6h.44l.44.6.44.6.88.6.44.6.44.6.44.6.44.6.88.6.44.6.44.6.44.6h.45l.44.6.88.6.44.6.44.6.44.6.44.6.88.6.44.6.44.6.44.6.44.6.44.6.88.6.44.6h.44l.44.6.44.61.88.6.44.6.44.6.44.6.44.6.44.6.88.6.44.6.44.6.44.6.44.6.88.6.44.6.44.6.44.6.44.6.44.6.88.6.44.6h.44l.44.6.44.6.88.6.44.6.44.6.44.6.44.6.88.6.44.6.44.6.44.6.44.6.44.6.88.6.44.6.44.6.44.6.44.6.88.6.44.6.44.6.44.6.44.6.44.6.88.6.44.6.44.6.44.6.44.6.88.6.44.6.44.6.44.6.44.6.44.6.88.6.44.6.44.6.44.6.44.6.88.6.44.6.44.6.44.6.44.6.44.6.88.6.44.6.44.6.44.6.44.6.88.6.44.6.44.6.44.6.44.6.44.6.88.6.44.6.44.6.44.6.44.6.88.6.44.6.44.6.44.6.44.6.88.6.44.6.44.6.44.6.44.6.44.6.88.6.44.6.44.6.44.6.44.6.88.6.44.6.44.6.44.6.44.6.44.6.88.6.44.6.44.6.44.6.44.6.88.6.44.6.44.6.44.6.44.6.44.6.88.6.44.6.44.6.44.6.44.6.88.6.44.6.44.6.44.6.44.6.44.6.88.6.44.6.44.6.44.6.44.6.88.6.44.6.44.6.44,1.21.44.6.44.6.88.6.44.6.44.6.44.6.44.6.88.6.44.6.44.6.44.6.44.6.44.6.88.6.44.6.44.6.44.6.44.6.88.6.44.6.44.6.44.6.44.6.88.6.44.6.44.6.44.6.44.6.44.6.88.6.44.6.44.6.44.6.44.6.88.6.44.6.44.6.44.6.44.6.44.6.88.6.44.6.44.6.44.6.44.6.88.6.44.6.44.6.44.6.44.6.44.6.88.6.44.6.44.6.44.6.44.6.88.6.44.6.44.6.44.6.44.6.44.6.88.6.44.6.44.6.44.6.44.6.88.6.44.6.44.6.44.6.44.6.44.6.88.6.44.6.44.6.44.6.44.6.88.6.44.6.44.6.44.6.44.6.88.6.44.6.44.6.44.6.44.6.44.6.88.6.44.6.44.6.44.6.44.6.88.6.44.6.44.6.44.6.44.6.44.6.88.6.44.6.44.6.44.6.44.6.89.6.44.6.44.6.44.6.44.6.44.6.88.6.44.6.44.6h.44l.44.6.88.6.44.6.44.6.44.6.44.6.44.6.88.6.44.6.44.6.44.6.44.6.88.6.44.6.44.6.44.6.44.6.44.6.88.6.44.6.44.6h.44l.44.6.88.6.44.6.44.6.44.6.44.6.44.6.88.6.44.6.44.6.44.6.44.6.88.6.44.6h.44l.44.6.44.6.88.6.44.6.44.6.44.6.44.6.44.6.88.6.44.6.44.6h.44l.44.6.88.6.44.6.44.6.44.6.44.6.44.6.88.6.44.6h.44l.44.61.44.6.88.6.44.6.44.6.44.6.44.6.44.6h.88l.44.6.44.6.44.6.44.6.88.6.44.6.44.6h.44l.44.6.44.6.88.6.44.6.44.6.44.6.44.6h.88l.44.6.44.6.44.6.44.6.44.6h.88l.44.6.44.6.44.6.44.6.88.6.44.6h.44l.44.6.44.6.88.6.44.6.44.6h.44l.44.6.44.6.88.6.44.6h.44l.44.6.44.6.88.6.44.6.44.6h.44l.44.6.44.6.88.6.44.6h.44l.44.6.44.6.88.6.44.6h.44l.44.6.44.6.44.6.88.6h.44l.44.6.44.6.44.6h.88l.44.6.44.6.44.6h.44l.44.6.88.6.44.6.44.6h.44l.44.6.88.6.44.6h.44l.44.6.44.6.44.6h.88l.44.6.44.6h.44l.44.6.88.6.44.6h.44l.44.6.44.6.44.6h.88l.44.6.44.6h.44l.44.6.88.6.44.6h.44l.44.6.44.6h.88l.44.6.44.6h.44l.44.6.44.6.88.6h.44l.44.6.44.6h.44l.88.6.44.6h.44l.44.6.44.6h.44l.88.6.44.6h.44l.44.6.44.6h.88l.44.6h.44l.44.6.44.6h.44l.88.6.44.6h.44l.44.6.44.6h.88l.44.6h.44l.44.6.44.6h.44l.88.6.44.6h.44l.44.6h.44l.88.6.44.6h.44l.44.6h.44l.44.6h.88l.44.6.44.6h.44l.44.6h.88l.44.6.44.6h.44l.44.6h.88l.44.6h.44l.44.6h.44l.44.6.88.6h.44l.44.6h.44l.44.6h.88l.44.6h.44l.44.6h.44l.44.6h.89l.44.6h.44l.44.6h.44l.88.6h.44l.44.6h.44l.44.6h.44l.88.6h.44l.44.6h.44l.44.6h.88l.44.6h.44l.44.6h.44l.44.6h.88l.44.6h.44l.44.6h1.33l.44.6h.44l.44.6h.44l.44.6h.88l.44.6h.88l.44.6h.88l.44.6h.44l.44.6h.88l.88.6h.44l.44.6h.88l.88.6h.44l.44.6h.88l.88.6h.88l.44.6h.44l.44.6h1.33l.44.6h.88l.88.6h.88l.44.6h.88l.88.6h.88l.44.6h1.33l.44.6h.88l.44.6h1.33l.44.6h1.33l.88.6h.88l.44.6h1.77l.44.6h1.33l.88.6h1.33l.44.6h1.77l.44.6h1.77l.44.6h2.21l.44.6h1.77l.88.6h1.77l.88.6h1.77l.44.6h3.53l.44.6h3.09l.44.6h3.98l.88.6h4.86l.88.6h11.48l.44-.03h.88l.44.03h11.04l.44-.6h5.74l.88-.6h3.53l.44-.6h3.53l.88-.6h2.65l.44-.6h2.65l.44-.6h2.21l.44-.6h1.77l.88-.6h1.33l.44-.6h2.21l.44-.6h1.77l.44-.6h1.77l.44-.6h1.33l.44-.6h1.33l.44-.6h1.77l.44-.6h.88l.44-.6h1.33l.44-.6h1.33l.88-.6h.88l.44-.6h.88l.88-.6h.88l.44-.6h1.33l.44-.6h.44l.44-.6h1.33l.44-.6h.88l.44-.6h1.33l.44-.6h.44l.44-.6h1.33l.44-.6h.44l.44-.6h.88l.88-.6h.44l.44-.6h.88l.88-.6h.44l.44-.6h.44l.44-.6h.44l.88-.6h.88l.44-.6h.44l.88-.6h.44l.44-.6h.44l.44-.6h1.33l.44-.6h.44l.44-.6h.44l.88-.6h.44l.44-.6h.44l.44-.6h.44l.88-.6h.44l.44-.6h.44l.44-.6h.88l.44-.6h.44l.44-.6h.44l.88-.6h.44l.44-.6h.44l.44-.6h.44l.88-.6.44-.6h.44l.44-.6h.44l.88-.6h.44l.44-.6h.44l.44-.6h.44l.88-.6.44-.6h.44l.44-.6h.44l.88-.6h.44l.44-.6.44-.6h.44l.44-.6h.88l.44-.6.44-.6h.44l.44-.6h.88l.44-.6.44-.6h.44l.44-.6h.44l.88-.6.44-.6h.44l.44-.6h.44l.88-.6.44-.6h.44l.44-.6.44-.6h.44l.88-.6.44-.6h.44l.44-.6h.44l.88-.6.44-.6h.44l.44-.6.44-.6h.44l.88-.6.44-.6h.44l.44-.6.44-.6h.88l.44-.6.44-.6h.44l.44-.6.88-.6.44-.6h.44l.44-.6.44-.6h.44l.88-.6.44-.6h.44l.44-.6.44-.6h.88l.44-.6.44-.6.44-.6h.44l.44-.6.88-.6h.44l.44-.6.44-.6.44-.6h.88l.44-.6.44-.6.44-.6h.44l.44-.6.88-.6.44-.6h.44l.44-.6.44-.6.88-.6h.44l.44-.6.44-.6.44-.6h.44l.88-.6.44-.6.44-.6h.44l.44-.6.88-.6.44-.6.44-.6h.44l.44-.6.44-.6.88-.6h.44l.44-.6.44-.6.44-.6.88-.6h.44l.44-.6.44-.6.44-.6.89-.6h.44l.44-.6.44-.6.44-.6.44-.6h.88l.44-.6.44-.6.44-.6.44-.6.88-.6h.44l.44-.6.44-.6.44-.6.44-.6.88-.6h.44l.44-.6.44-.6.44-.6.88-.6.44-.6h.44l.44-.6.44-.6.44-.6.88-.6.44-.6h.44l.44-.6.44-.6.88-.6.44-.6.44-.6.44-.6.44-.6h.44l.88-.6.44-.6.44-.6.44-.6.44-.6.88-.6h.44l.44-.6.44-.6.44-.6.44-.6.88-.6.44-.6.44-.6.44-.6h.44l.88-.6.44-.6.44-.6.44-.61.44-.6.44-.6.88-.6.44-.6h.44l.44-.6.44-.6.88-.6.44-.6.44-.6.44-.6.44-.6.88-.6.44-.6.44-.6h.44l.44-.6.44-.6.88-.6.44-.6.44-.6.44-.6.44-.6.88-.6.44-.6.44-.6.44-.6.44-.6.44-.6h.88l.44-.6.44-.6.44-.6.44-.6.88-.6.44-.6.44-.6.44-.6.44-.6.44-.6.88-.6.44-.6.44-.6.44-.6.44-.6.88-.6h.44l.44-.6.44-.6.44-.6.44-.6.88-.6.44-.6.44-.6.44-.6.44-.6.88-.6.44-.6.44-.6.44-.6.44-.6.44-.6.88-.6.44-.6.44-.6.44-.6.44-.6.88-.6.44-.6.44-.6.44-.6.44-.6.88-.6.44-.6.44-.6.44-.6h.44l.44-.6.88-.6.44-.6.44-.6.44-.6.44-.6.88-.6.44-.6.44-.6.44-.6.44-.6.44-.6.88-.6.44-.6.44-.6.44-.6.44-.6.88-.6.44-.6.44-.6.44-.6.44-.6.44-.6.88-.6.44-.6.44-.6.44-.6.44-.6.88-.6.44-.6.44-.6.44-.6.44-.6.44-.6.88-.6.44-.6.44-.6.44-.6.44-.6.88-.6.44-.6.44-.6.44-.6.44-.6.44-.6.88-.6.44-.6.44-.6.44-.6.44-.6.88-.6.44-.6.44-.6.44-.6.44-.6.44-.6.88-.6.44-.6.44-.6.44-.6.44-.6.88-.6.44-.6.44-.6.44-.6.44-.6.88-.6.44-1.21.44-.6.44-.6.44-.6.44-.6.88-.6.44-.6.44-.6.44-.6.44-.6.88-.6.44-.6.44-.6.44-.6.44-.6.44-.6.88-.6.44-.6.44-.6.44-.6.44-.6.88-.6.44-.6.44-.6.44-.6.44-.6.44-.6.88-.6.38-.6"/>
  </g>
  <g id="Ebene_1" data-name="Ebene 1">
    <line class="cls-4" x1="381.6" y1="374.4" x2="525.6" y2="535.4"/>
    <line class="cls-4" x1="525.6" y1="374.4" x2="525.6" y2="535.4"/>
    <line class="cls-5" x1="525.6" y1="535.4" x2="1111.81" y2="535.35"/>
    <line class="cls-3" x1="1111.81" y1="535.35" x2="1111.81" y2="374.4"/>
    <circle class="cls-2" cx="525.6" cy="535.4" r="7.2"/>
    <circle class="cls-2" cx="1111.81" cy="535.35" r="7.2"/>
  </g>
  <g id="TEXT">
    <text class="cls-11" transform="translate(1505.83 439.2)"><tspan x="0" y="0">2π</tspan></text>
    <text class="cls-11" transform="translate(1194.46 439.2)"><tspan x="0" y="0">3π/2</tspan></text>
    <text class="cls-11" transform="translate(943.3 439.2)"><tspan x="0" y="0">π</tspan></text>
    <text class="cls-11" transform="translate(631.94 439.2)"><tspan x="0" y="0">π/2</tspan></text>
    <text class="cls-11" transform="translate(330.04 439.2)"><tspan x="0" y="0">0</tspan></text>
    <text class="cls-11" transform="translate(316.8 604.43)"><tspan x="0" y="0">-1</tspan></text>
    <text class="cls-11" transform="translate(330.04 172.43)"><tspan x="0" y="0">1</tspan></text>
    <text class="cls-11" transform="translate(1720.8 439.2)"><tspan x="0" y="0">x</tspan></text>
    <text class="cls-11" transform="translate(331.2 28.8)"><tspan x="0" y="0">y</tspan></text>
  </g>
</svg>