<?xml version="1.0" encoding="UTF-8"?>
<svg xmlns="http://www.w3.org/2000/svg" viewBox="0 0 1584 590.4">
  <defs>
    <style>
      .cls-1, .cls-2 {
        stroke: #0d1117;
      }

      .cls-1, .cls-2, .cls-3, .cls-4, .cls-5, .cls-6 {
        fill: none;
      }

      .cls-1, .cls-2, .cls-3, .cls-4, .cls-5, .cls-6, .cls-7 {
        stroke-width: 3px;
      }

      .cls-1, .cls-5, .cls-6 {
        stroke-linecap: round;
      }

      .cls-1, .cls-6 {
        stroke-dasharray: 0 0 1 8;
        stroke-linejoin: round;
      }

      .cls-2, .cls-3, .cls-4, .cls-5, .cls-7 {
        stroke-miterlimit: 10;
      }

      .cls-3 {
        stroke: #d85648;
      }

      .cls-4, .cls-5, .cls-6, .cls-7 {
        stroke: #307eef;
      }

      .cls-8, .cls-9 {
        fill: #0d1117;
      }

      .cls-5 {
        stroke-dasharray: 0 0 0 0 0 0 1 8 0 0 0 0;
      }

      .cls-7 {
        fill: #307eef;
      }

      .cls-9 {
        font-family: Roboto-Regular, Roboto;
        font-size: 48px;
      }
    </style>
  </defs>
  <g id="Scale">
    <g>
      <line class="cls-2" x1="0" y1="302.4" x2="1557.42" y2="302.4"/>
      <polygon class="cls-8" points="1551.48 311.12 1584 302.41 1551.48 293.68 1551.48 311.12"/>
    </g>
    <g>
      <line class="cls-2" x1="288" y1="590.4" x2="288" y2="40.98"/>
      <polygon class="cls-8" points="296.72 46.92 288.01 14.4 279.28 46.92 296.72 46.92"/>
    </g>
    <line class="cls-2" x1="576" y1="288" x2="576" y2="316.8"/>
    <line class="cls-2" x1="864" y1="288" x2="864" y2="316.8"/>
    <line class="cls-2" x1="1152" y1="288" x2="1152" y2="316.8"/>
    <line class="cls-2" x1="1440" y1="288" x2="1440" y2="316.8"/>
    <line class="cls-2" x1="100.8" y1="288" x2="100.8" y2="316.8"/>
    <line class="cls-2" x1="273.6" y1="115.2" x2="302.4" y2="115.2"/>
    <line class="cls-2" x1="273.6" y1="489.6" x2="302.4" y2="489.6"/>
  </g>
  <g id="Ebene_1" data-name="Ebene 1">
    <circle class="cls-1" cx="288" cy="302.4" r="187.2"/>
  </g>
  <g id="TEXT">
    <text class="cls-9" transform="translate(1412.23 367.2)"><tspan x="0" y="0">2π</tspan></text>
    <text class="cls-9" transform="translate(1100.86 367.2)"><tspan x="0" y="0">3π/2</tspan></text>
    <text class="cls-9" transform="translate(538.34 367.2)"><tspan x="0" y="0">π/2</tspan></text>
    <text class="cls-9" transform="translate(236.44 367.2)"><tspan x="0" y="0">0</tspan></text>
    <text class="cls-9" transform="translate(223.2 503.63)"><tspan x="0" y="0">-1</tspan></text>
    <text class="cls-9" transform="translate(236.44 129.23)"><tspan x="0" y="0">1</tspan></text>
    <text class="cls-9" transform="translate(1555.2 367.2)"><tspan x="0" y="0">x</tspan></text>
    <text class="cls-9" transform="translate(237.6 28.8)"><tspan x="0" y="0">y</tspan></text>
    <text class="cls-9" transform="translate(849.7 367.2)"><tspan x="0" y="0">π</tspan></text>
  </g>
  <g id="Sine">
    <path class="cls-4" d="m288,302.4c.31-.32.48-.48.48-.48l62.79-62.83,33.56-31.01,28.15-23.62,24.9-18.6,22.73-14.79,20.57-11.39,19.49-8.9,18.4-6.63,16.24-4.36,15.16-2.78,14.07-1.45,12.99-.36,12.99.58,12.99,1.51,14.07,2.69,15.16,4.1,16.24,5.74,18.4,8.14,20.57,11.05,21.65,13.71,22.73,16.49,25.98,21.14,29.23,26.21,35.73,34.57s20.88,21.17,40.73,41.28"/>
    <path class="cls-4" d="m864,302.4c.31.32.48.48.48.48l62.79,62.83,33.56,31.01,28.15,23.62,24.9,18.6,22.73,14.79,20.57,11.39,19.49,8.9,18.4,6.63,16.24,4.36,15.16,2.78,14.07,1.45,12.99.36,12.99-.58,12.99-1.51,14.07-2.69,15.16-4.1,16.24-5.74,18.4-8.14,20.57-11.05,21.65-13.71,22.73-16.49,25.98-21.14,29.23-26.21,35.73-34.57s20.88-21.17,40.73-41.28"/>
    <path class="cls-3" d="m289.53,115.2l12.99.58,12.99,1.51,14.07,2.69,15.16,4.1,16.24,5.74,18.4,8.14,20.57,11.05,21.65,13.71,22.73,16.49,25.98,21.14,29.23,26.21,35.73,34.57s20.88,21.17,40.73,41.28"/>
    <path class="cls-3" d="m576,302.4c.31.32.48.48.48.48l62.79,62.83,33.56,31.01,28.15,23.62,24.9,18.6,22.73,14.79,20.57,11.39,19.49,8.9,18.4,6.63,16.24,4.36,15.16,2.78,14.07,1.45,12.99.36,12.99-.58,12.99-1.51,14.07-2.69,15.16-4.1,16.24-5.74,18.4-8.14,20.57-11.05,21.65-13.71,22.73-16.49,25.98-21.14,29.23-26.21,35.73-34.57s20.88-21.17,40.73-41.28"/>
    <line class="cls-5" x1="288" y1="302.4" x2="445.2" y2="404.08"/>
    <line class="cls-5" x1="445.2" y1="302.4" x2="445.2" y2="404.08"/>
    <line class="cls-5" x1="445.2" y1="404.08" x2="1334.74" y2="404.08"/>
    <circle class="cls-7" cx="1334.74" cy="404.08" r="7.2"/>
    <circle class="cls-7" cx="445.2" cy="404.08" r="7.2"/>
    <line class="cls-6" x1="1334.74" y1="404.08" x2="1334.74" y2="302.4"/>
  </g>
</svg>